<svg id="svg" version="1.1" xmlns="http://www.w3.org/2000/svg" xmlns:xlink="http://www.w3.org/1999/xlink" width="400" height="400" viewBox="0, 0, 400,400"><g id="svgg"><path id="path0" d="M188.000 43.071 C 187.230 43.166,186.405 43.498,186.167 43.807 C 185.832 44.243,184.359 44.381,179.648 44.421 C 174.827 44.462,173.649 44.577,173.978 44.973 C 174.687 45.827,174.000 46.000,169.896 46.000 C 166.262 46.000,165.907 46.068,165.716 46.800 C 165.532 47.505,165.168 47.601,162.653 47.606 C 159.838 47.612,158.604 47.951,158.866 48.645 C 158.940 48.840,157.875 49.054,156.500 49.119 C 154.328 49.223,154.000 49.341,154.000 50.019 C 154.000 50.707,153.714 50.800,151.600 50.800 C 149.467 50.800,149.200 50.889,149.200 51.600 C 149.200 52.475,148.189 52.703,147.865 51.900 C 147.704 51.500,147.657 51.500,147.632 51.900 C 147.613 52.199,147.036 52.400,146.200 52.400 C 145.067 52.400,144.800 52.552,144.800 53.200 C 144.800 53.911,144.533 54.000,142.400 54.000 C 140.267 54.000,140.000 54.089,140.000 54.800 C 140.000 55.467,139.733 55.600,138.400 55.600 C 137.067 55.600,136.800 55.733,136.800 56.400 C 136.800 57.067,136.533 57.200,135.200 57.200 C 133.837 57.200,133.600 57.326,133.600 58.047 C 133.600 58.750,133.418 58.858,132.525 58.688 C 131.207 58.436,130.400 58.712,130.400 59.416 C 130.400 59.740,129.956 59.934,129.258 59.914 C 127.790 59.872,127.173 60.265,127.474 61.049 C 127.654 61.517,127.475 61.652,126.757 61.592 C 124.870 61.433,124.400 61.595,124.400 62.400 C 124.400 63.052,124.133 63.200,122.963 63.200 C 121.862 63.200,121.476 63.387,121.316 64.000 C 121.157 64.606,120.770 64.800,119.716 64.800 C 118.662 64.800,118.275 64.994,118.116 65.600 C 118.000 66.043,117.570 66.400,117.153 66.400 C 116.667 66.400,116.400 66.683,116.400 67.200 C 116.400 67.852,116.133 68.000,114.963 68.000 C 113.862 68.000,113.476 68.187,113.316 68.800 C 113.184 69.306,112.770 69.600,112.191 69.600 C 111.472 69.600,111.320 69.772,111.484 70.400 C 111.664 71.087,111.496 71.200,110.293 71.200 C 109.230 71.200,108.843 71.392,108.684 72.000 C 108.569 72.440,108.188 72.800,107.837 72.800 C 107.467 72.800,107.200 73.135,107.200 73.600 C 107.200 74.252,106.933 74.400,105.757 74.400 C 104.618 74.400,104.364 74.530,104.553 75.021 C 104.684 75.362,104.658 75.563,104.495 75.468 C 103.946 75.144,102.400 75.970,102.400 76.587 C 102.400 76.933,102.052 77.200,101.600 77.200 C 101.067 77.200,100.800 77.467,100.800 78.000 C 100.800 78.533,100.533 78.800,100.000 78.800 C 99.467 78.800,99.200 79.067,99.200 79.600 C 99.200 80.192,98.933 80.400,98.173 80.400 C 97.328 80.400,97.191 80.542,97.400 81.200 C 97.687 82.105,97.225 82.246,96.421 81.500 C 95.990 81.100,95.939 81.100,96.165 81.500 C 96.418 81.949,95.962 82.183,95.100 82.047 C 94.827 82.004,94.758 82.266,94.824 83.100 C 94.837 83.265,94.432 83.502,93.924 83.627 C 93.340 83.770,93.043 84.101,93.118 84.527 C 93.196 84.976,92.964 85.200,92.418 85.200 C 91.867 85.200,91.600 85.461,91.600 86.000 C 91.600 86.533,91.333 86.800,90.800 86.800 C 90.267 86.800,90.000 87.067,90.000 87.600 C 90.000 88.133,89.733 88.400,89.200 88.400 C 88.667 88.400,88.400 88.667,88.400 89.200 C 88.400 89.733,88.133 90.000,87.600 90.000 C 87.067 90.000,86.800 90.267,86.800 90.800 C 86.800 91.333,86.533 91.600,86.000 91.600 C 85.461 91.600,85.200 91.867,85.200 92.418 C 85.200 92.964,84.976 93.196,84.527 93.118 C 84.120 93.047,83.763 93.334,83.627 93.843 C 83.488 94.358,83.128 94.643,82.700 94.578 C 82.137 94.492,82.000 94.769,82.000 95.989 C 82.000 97.170,81.823 97.553,81.200 97.716 C 80.760 97.831,80.400 98.212,80.400 98.563 C 80.400 98.933,80.065 99.200,79.600 99.200 C 79.067 99.200,78.800 99.467,78.800 100.000 C 78.800 100.533,78.533 100.800,78.000 100.800 C 77.483 100.800,77.200 101.067,77.200 101.553 C 77.200 101.986,76.837 102.402,76.348 102.529 C 75.779 102.678,75.576 102.959,75.735 103.376 C 75.880 103.753,75.759 104.000,75.430 104.000 C 74.797 104.000,74.400 104.860,74.400 106.233 C 74.400 106.933,74.179 107.200,73.600 107.200 C 73.135 107.200,72.800 107.467,72.800 107.837 C 72.800 108.188,72.440 108.569,72.000 108.684 C 71.399 108.841,71.200 109.230,71.200 110.247 C 71.200 111.472,70.892 111.804,69.900 111.647 C 69.735 111.621,69.600 111.939,69.600 112.353 C 69.600 112.770,69.243 113.200,68.800 113.316 C 68.187 113.476,68.000 113.862,68.000 114.963 C 68.000 116.133,67.852 116.400,67.200 116.400 C 66.683 116.400,66.400 116.667,66.400 117.153 C 66.400 117.570,66.043 118.000,65.600 118.116 C 64.987 118.276,64.800 118.662,64.800 119.763 C 64.800 120.933,64.652 121.200,64.000 121.200 C 63.333 121.200,63.200 121.467,63.200 122.800 C 63.200 124.133,63.067 124.400,62.400 124.400 C 61.623 124.400,61.419 124.923,61.579 126.500 C 61.619 126.888,61.382 127.200,61.049 127.200 C 60.246 127.200,59.875 127.873,59.914 129.258 C 59.934 129.956,59.740 130.400,59.416 130.400 C 58.706 130.400,58.345 131.442,58.644 132.632 C 58.843 133.427,58.736 133.600,58.043 133.600 C 57.326 133.600,57.200 133.839,57.200 135.200 C 57.200 136.533,57.067 136.800,56.400 136.800 C 55.733 136.800,55.600 137.067,55.600 138.400 C 55.600 139.733,55.467 140.000,54.800 140.000 C 53.999 140.000,53.761 141.138,53.984 143.900 C 54.063 144.868,53.021 145.183,52.665 144.300 C 52.554 144.025,52.449 145.015,52.432 146.500 C 52.403 148.923,52.318 149.200,51.600 149.200 C 50.889 149.200,50.800 149.467,50.800 151.600 C 50.800 153.733,50.711 154.000,50.000 154.000 C 49.288 154.000,49.200 154.267,49.200 156.437 C 49.200 158.538,49.090 158.904,48.400 159.084 C 47.685 159.271,47.600 159.630,47.600 162.447 C 47.600 165.333,47.532 165.600,46.800 165.600 C 46.054 165.600,46.000 165.867,46.000 169.553 C 46.000 173.170,45.932 173.524,45.200 173.716 C 44.443 173.914,44.400 174.262,44.400 180.205 C 44.400 185.418,44.305 186.449,43.841 186.271 C 42.911 185.914,42.742 188.745,42.862 202.704 C 42.924 209.907,43.038 215.395,43.115 214.900 C 43.192 214.405,43.513 214.000,43.828 214.000 C 44.329 214.000,44.655 219.611,44.516 225.849 C 44.510 226.095,44.842 226.209,45.253 226.102 C 45.995 225.908,46.142 227.365,46.106 234.511 C 46.103 235.024,46.311 235.155,46.851 234.984 C 47.538 234.766,47.600 234.998,47.600 237.810 C 47.600 240.515,47.692 240.899,48.382 241.079 C 49.033 241.250,49.184 241.695,49.282 243.742 C 49.382 245.826,49.507 246.182,50.100 246.082 C 50.702 245.981,50.800 246.302,50.800 248.382 C 50.800 250.533,50.888 250.800,51.600 250.800 C 52.318 250.800,52.403 251.077,52.432 253.500 C 52.449 254.985,52.554 255.975,52.665 255.700 C 53.021 254.817,54.063 255.132,53.984 256.100 C 53.761 258.862,53.999 260.000,54.800 260.000 C 55.467 260.000,55.600 260.267,55.600 261.600 C 55.600 262.933,55.733 263.200,56.400 263.200 C 57.067 263.200,57.200 263.467,57.200 264.800 C 57.200 266.165,57.325 266.400,58.050 266.400 C 58.767 266.400,58.865 266.575,58.676 267.519 C 58.430 268.748,58.685 269.343,59.601 269.679 C 60.039 269.839,60.181 270.427,60.125 271.849 C 60.066 273.330,60.144 273.629,60.448 273.092 C 61.082 271.972,61.597 272.682,61.632 274.724 C 61.649 275.756,61.754 276.375,61.865 276.100 C 62.260 275.122,63.147 275.578,63.114 276.742 C 63.075 278.115,63.445 278.800,64.224 278.800 C 64.619 278.800,64.800 279.253,64.800 280.237 C 64.800 281.338,64.987 281.724,65.600 281.884 C 66.043 282.000,66.400 282.430,66.400 282.847 C 66.400 283.333,66.683 283.600,67.200 283.600 C 67.852 283.600,68.000 283.867,68.000 285.037 C 68.000 286.115,68.191 286.525,68.763 286.674 C 69.183 286.784,69.616 287.217,69.726 287.637 C 69.835 288.057,70.212 288.400,70.563 288.400 C 71.315 288.400,71.423 289.443,70.700 289.735 C 70.300 289.896,70.300 289.943,70.700 289.968 C 70.975 289.986,71.200 290.249,71.200 290.553 C 71.200 290.858,71.560 291.201,72.000 291.316 C 72.535 291.456,72.800 291.862,72.800 292.539 C 72.800 293.097,72.978 293.663,73.195 293.797 C 73.422 293.937,73.489 293.777,73.353 293.421 C 73.194 293.008,73.345 292.800,73.804 292.800 C 74.296 292.800,74.434 293.029,74.284 293.600 C 74.169 294.040,74.249 294.400,74.461 294.400 C 74.673 294.400,74.745 294.565,74.620 294.768 C 74.495 294.970,74.629 295.375,74.919 295.668 C 75.208 295.960,75.564 296.515,75.710 296.900 C 75.856 297.285,76.251 297.600,76.587 297.600 C 76.933 297.600,77.200 297.948,77.200 298.400 C 77.200 298.933,77.467 299.200,78.000 299.200 C 78.533 299.200,78.800 299.467,78.800 300.000 C 78.800 300.533,79.067 300.800,79.600 300.800 C 80.133 300.800,80.400 301.067,80.400 301.600 C 80.400 302.121,80.667 302.400,81.165 302.400 C 81.743 302.400,81.994 302.784,82.196 303.976 C 82.380 305.063,82.628 305.487,82.999 305.345 C 83.337 305.215,83.585 305.485,83.668 306.069 C 83.753 306.667,84.051 306.980,84.500 306.944 C 84.939 306.910,85.200 307.170,85.200 307.644 C 85.200 308.133,85.482 308.400,86.000 308.400 C 86.533 308.400,86.800 308.667,86.800 309.200 C 86.800 309.733,87.067 310.000,87.600 310.000 C 88.133 310.000,88.400 310.267,88.400 310.800 C 88.400 311.333,88.667 311.600,89.200 311.600 C 89.733 311.600,90.000 311.867,90.000 312.400 C 90.000 312.933,90.267 313.200,90.800 313.200 C 91.333 313.200,91.600 313.467,91.600 314.000 C 91.600 314.518,91.867 314.800,92.356 314.800 C 92.830 314.800,93.090 315.061,93.056 315.500 C 93.020 315.949,93.333 316.247,93.931 316.332 C 94.515 316.415,94.785 316.663,94.655 317.001 C 94.513 317.370,94.928 317.619,95.985 317.798 C 97.032 317.974,97.586 318.303,97.723 318.829 C 97.834 319.253,98.212 319.600,98.563 319.600 C 98.933 319.600,99.200 319.935,99.200 320.400 C 99.200 320.933,99.467 321.200,100.000 321.200 C 100.533 321.200,100.800 321.467,100.800 322.000 C 100.800 322.517,101.067 322.800,101.553 322.800 C 101.970 322.800,102.400 323.157,102.516 323.600 C 102.640 324.074,103.062 324.400,103.550 324.400 C 104.129 324.400,104.304 324.584,104.138 325.016 C 104.008 325.355,104.059 325.604,104.251 325.569 C 105.841 325.279,107.200 325.662,107.200 326.400 C 107.200 326.865,107.467 327.200,107.837 327.200 C 108.188 327.200,108.569 327.560,108.684 328.000 C 108.799 328.440,109.196 328.800,109.567 328.800 C 109.937 328.800,110.482 329.025,110.779 329.300 C 111.210 329.700,111.261 329.700,111.035 329.300 C 110.880 329.025,110.943 328.800,111.176 328.800 C 111.409 328.800,111.600 329.160,111.600 329.600 C 111.600 330.133,111.867 330.400,112.400 330.400 C 112.933 330.400,113.200 330.667,113.200 331.200 C 113.200 331.749,113.482 332.014,114.100 332.046 C 116.014 332.144,116.198 332.221,116.144 332.900 C 116.106 333.387,116.380 333.600,117.044 333.600 C 117.733 333.600,118.000 333.823,118.000 334.400 C 118.000 335.063,118.267 335.200,119.553 335.200 C 120.770 335.200,121.152 335.373,121.316 336.000 C 121.476 336.613,121.862 336.800,122.963 336.800 C 124.133 336.800,124.400 336.948,124.400 337.600 C 124.400 338.248,124.667 338.400,125.800 338.400 C 126.933 338.400,127.200 338.552,127.200 339.200 C 127.200 339.792,127.467 340.000,128.224 340.000 C 128.926 340.000,129.159 340.157,128.965 340.500 C 128.739 340.900,128.790 340.900,129.221 340.500 C 129.934 339.838,130.400 339.867,130.400 340.573 C 130.400 341.283,131.728 341.740,132.800 341.400 C 133.424 341.202,133.600 341.328,133.600 341.973 C 133.600 342.671,133.849 342.800,135.200 342.800 C 136.533 342.800,136.800 342.933,136.800 343.600 C 136.800 344.267,137.067 344.400,138.400 344.400 C 139.733 344.400,140.000 344.533,140.000 345.200 C 140.000 345.901,140.267 346.000,142.153 346.000 C 143.970 346.000,144.339 346.125,144.516 346.800 C 144.694 347.480,145.062 347.600,146.963 347.600 C 148.933 347.600,149.200 347.695,149.200 348.400 C 149.200 349.111,149.467 349.200,151.600 349.200 C 153.733 349.200,154.000 349.289,154.000 350.000 C 154.000 350.711,154.267 350.800,156.400 350.800 C 158.653 350.800,158.994 350.972,158.865 352.046 C 158.849 352.182,159.143 352.292,159.518 352.292 C 163.939 352.283,164.881 352.425,165.064 353.124 C 165.227 353.747,165.769 353.863,168.927 353.951 C 170.947 354.008,172.660 354.222,172.733 354.427 C 172.807 354.632,173.167 354.797,173.533 354.794 C 174.110 354.789,174.119 354.735,173.600 354.400 C 173.270 354.187,173.185 354.009,173.411 354.006 C 173.637 354.003,174.130 354.360,174.507 354.800 C 175.143 355.542,181.698 356.026,186.200 355.662 C 186.812 355.613,186.869 355.682,186.442 355.958 C 185.991 356.250,186.029 356.362,186.642 356.545 C 187.059 356.670,186.899 356.712,186.286 356.638 C 185.674 356.565,185.284 356.617,185.419 356.753 C 185.845 357.178,212.800 357.166,212.800 356.740 C 212.800 356.527,212.978 356.463,213.195 356.597 C 213.418 356.735,213.492 356.583,213.364 356.250 C 213.155 355.705,219.593 355.329,225.681 355.529 C 226.469 355.555,226.701 355.408,226.539 354.985 C 226.416 354.666,226.127 354.521,225.896 354.664 C 225.651 354.816,225.595 354.731,225.762 354.462 C 225.943 354.169,227.346 354.000,229.600 354.000 C 231.554 354.000,233.264 353.820,233.400 353.600 C 233.536 353.380,233.827 353.200,234.047 353.200 C 234.267 353.200,234.322 353.403,234.168 353.652 C 233.998 353.927,234.106 354.028,234.444 353.910 C 234.750 353.804,234.947 353.421,234.882 353.059 C 234.768 352.419,235.764 352.283,240.482 352.292 C 240.857 352.292,241.151 352.182,241.135 352.046 C 241.006 350.972,241.347 350.800,243.600 350.800 C 245.878 350.800,246.224 350.616,246.047 349.500 C 246.021 349.335,247.080 349.200,248.400 349.200 C 250.678 349.200,251.024 349.016,250.847 347.900 C 250.821 347.735,251.106 347.600,251.480 347.600 C 252.009 347.600,252.053 347.707,251.680 348.080 C 251.416 348.344,251.200 348.744,251.200 348.969 C 251.200 349.194,251.480 348.978,251.823 348.489 C 252.287 347.826,252.846 347.600,254.023 347.600 C 254.890 347.600,255.579 347.465,255.553 347.300 C 255.390 346.271,255.727 346.000,257.167 346.000 C 259.122 346.000,260.000 345.677,260.000 344.957 C 260.000 344.574,260.499 344.400,261.600 344.400 C 262.933 344.400,263.200 344.267,263.200 343.600 C 263.200 342.933,263.467 342.800,264.800 342.800 C 266.163 342.800,266.400 342.674,266.400 341.953 C 266.400 341.250,266.582 341.142,267.475 341.312 C 268.809 341.567,269.600 341.286,269.600 340.557 C 269.600 340.174,270.099 340.000,271.200 340.000 C 272.533 340.000,272.800 339.867,272.800 339.200 C 272.800 338.552,273.067 338.400,274.200 338.400 C 275.333 338.400,275.600 338.248,275.600 337.600 C 275.600 336.948,275.867 336.800,277.037 336.800 C 278.138 336.800,278.524 336.613,278.684 336.000 C 278.848 335.373,279.230 335.200,280.447 335.200 C 281.733 335.200,282.000 335.063,282.000 334.400 C 282.000 333.771,282.277 333.593,283.300 333.568 C 284.015 333.551,284.375 333.446,284.100 333.335 C 283.338 333.028,283.504 331.940,284.300 332.021 C 286.122 332.206,286.800 331.984,286.800 331.200 C 286.800 330.608,287.067 330.400,287.827 330.400 C 288.685 330.400,288.810 330.263,288.590 329.569 C 288.384 328.919,288.488 328.754,289.063 328.815 C 290.673 328.984,291.200 328.783,291.200 328.000 C 291.200 327.467,291.467 327.200,292.000 327.200 C 292.533 327.200,292.800 326.933,292.800 326.400 C 292.800 325.795,293.069 325.599,293.900 325.594 C 294.505 325.591,295.270 325.399,295.600 325.168 C 296.063 324.844,295.983 324.809,295.250 325.017 C 294.604 325.200,294.387 325.144,294.574 324.843 C 294.724 324.599,295.393 324.400,296.061 324.400 C 296.938 324.400,297.333 324.178,297.484 323.600 C 297.600 323.157,298.030 322.800,298.447 322.800 C 298.933 322.800,299.200 322.517,299.200 322.000 C 299.200 321.467,299.467 321.200,300.000 321.200 C 300.533 321.200,300.800 320.933,300.800 320.400 C 300.800 319.867,301.067 319.600,301.600 319.600 C 302.133 319.600,302.400 319.333,302.400 318.800 C 302.400 318.316,302.677 317.988,303.100 317.969 C 304.821 317.894,306.574 317.200,305.043 317.200 C 304.663 317.200,304.464 317.020,304.600 316.800 C 304.736 316.580,305.303 316.400,305.861 316.400 C 306.538 316.400,306.944 316.135,307.084 315.600 C 307.199 315.160,307.542 314.800,307.847 314.800 C 308.151 314.800,308.400 314.440,308.400 314.000 C 308.400 313.467,308.667 313.200,309.200 313.200 C 309.733 313.200,310.000 312.933,310.000 312.400 C 310.000 311.867,310.267 311.600,310.800 311.600 C 311.333 311.600,311.600 311.333,311.600 310.800 C 311.600 310.267,311.867 310.000,312.400 310.000 C 312.933 310.000,313.200 309.733,313.200 309.200 C 313.200 308.667,313.467 308.400,314.000 308.400 C 314.444 308.400,314.800 308.133,314.800 307.800 C 314.800 307.470,315.067 307.200,315.392 307.200 C 315.718 307.200,316.095 306.762,316.229 306.227 C 316.399 305.550,316.665 305.327,317.102 305.495 C 317.500 305.647,317.631 305.574,317.459 305.296 C 317.309 305.053,317.370 304.742,317.593 304.604 C 317.817 304.466,318.000 303.913,318.000 303.376 C 318.000 302.667,318.218 302.400,318.800 302.400 C 319.333 302.400,319.600 302.133,319.600 301.600 C 319.600 301.067,319.867 300.800,320.400 300.800 C 320.933 300.800,321.200 300.533,321.200 300.000 C 321.200 299.467,321.467 299.200,322.000 299.200 C 322.517 299.200,322.800 298.933,322.800 298.447 C 322.800 298.030,323.157 297.600,323.600 297.484 C 324.216 297.323,324.400 296.938,324.400 295.814 C 324.400 294.926,324.559 294.451,324.807 294.604 C 325.030 294.742,325.091 295.068,324.942 295.328 C 324.787 295.599,324.826 295.658,325.036 295.467 C 325.415 295.120,325.467 294.930,325.550 293.600 C 325.582 293.083,325.883 292.800,326.400 292.800 C 326.933 292.800,327.200 292.533,327.200 292.000 C 327.200 291.506,327.468 291.199,327.900 291.197 C 328.285 291.195,328.808 290.745,329.063 290.196 C 329.317 289.648,329.362 289.300,329.163 289.423 C 328.963 289.546,328.800 289.367,328.800 289.024 C 328.800 288.667,329.142 288.400,329.600 288.400 C 330.133 288.400,330.400 288.133,330.400 287.600 C 330.400 287.067,330.667 286.800,331.200 286.800 C 331.704 286.800,332.000 286.533,332.000 286.080 C 332.000 285.684,332.225 285.118,332.500 284.821 C 332.900 284.390,332.900 284.339,332.500 284.565 C 332.193 284.738,332.000 284.606,332.000 284.224 C 332.000 283.867,332.342 283.600,332.800 283.600 C 333.333 283.600,333.600 283.333,333.600 282.800 C 333.600 282.360,333.851 282.000,334.157 282.000 C 334.795 282.000,335.200 281.151,335.200 279.814 C 335.200 279.230,335.492 278.817,336.000 278.684 C 336.613 278.524,336.800 278.138,336.800 277.037 C 336.800 275.867,336.948 275.600,337.600 275.600 C 338.263 275.600,338.400 275.333,338.400 274.047 C 338.400 272.830,338.573 272.448,339.200 272.284 C 339.783 272.132,340.000 271.738,340.000 270.837 C 340.000 270.046,340.201 269.600,340.557 269.600 C 341.292 269.600,341.659 268.574,341.356 267.368 C 341.157 266.573,341.264 266.400,341.957 266.400 C 342.674 266.400,342.800 266.161,342.800 264.800 C 342.800 263.467,342.933 263.200,343.600 263.200 C 344.263 263.200,344.400 262.933,344.400 261.647 C 344.400 260.430,344.573 260.048,345.200 259.884 C 345.989 259.678,346.219 258.609,346.016 256.100 C 345.962 255.433,346.157 255.200,346.771 255.200 C 347.586 255.200,347.871 253.960,347.621 251.500 C 347.574 251.037,347.829 250.800,348.375 250.800 C 349.117 250.800,349.200 250.558,349.200 248.400 C 349.200 246.267,349.289 246.000,350.000 246.000 C 350.718 246.000,350.800 245.733,350.800 243.400 C 350.800 241.067,350.882 240.800,351.600 240.800 C 352.334 240.800,352.400 240.533,352.400 237.553 C 352.400 234.522,352.452 234.320,353.186 234.512 C 353.619 234.625,353.957 234.601,353.939 234.459 C 353.510 231.161,354.091 225.530,354.840 225.726 C 355.664 225.942,355.679 225.850,355.591 220.873 C 355.469 213.969,355.498 213.586,356.133 213.830 C 356.859 214.108,356.834 214.436,357.063 201.622 C 357.281 189.507,357.118 186.800,356.175 186.800 C 355.515 186.800,355.486 186.417,355.596 179.054 C 355.639 176.137,355.518 174.003,355.317 174.128 C 354.377 174.708,354.039 173.593,353.972 169.689 C 353.908 165.981,353.831 165.600,353.151 165.600 C 352.482 165.600,352.400 165.267,352.400 162.563 C 352.400 159.884,352.308 159.501,351.617 159.320 C 350.956 159.147,350.816 158.705,350.717 156.458 C 350.617 154.184,350.499 153.817,349.900 153.918 C 349.298 154.019,349.200 153.698,349.200 151.618 C 349.200 149.487,349.107 149.200,348.420 149.200 C 347.751 149.200,347.623 148.873,347.520 146.900 C 347.430 145.176,347.250 144.600,346.800 144.598 C 346.207 144.597,346.126 144.281,346.043 141.663 C 346.011 140.682,345.786 140.269,345.200 140.116 C 344.573 139.952,344.400 139.570,344.400 138.353 C 344.400 137.067,344.263 136.800,343.600 136.800 C 342.933 136.800,342.800 136.533,342.800 135.200 C 342.800 133.839,342.674 133.600,341.957 133.600 C 341.264 133.600,341.157 133.427,341.356 132.632 C 341.668 131.390,341.286 130.400,340.495 130.400 C 339.979 130.400,340.003 130.252,340.638 129.507 C 341.258 128.780,341.270 128.715,340.700 129.156 C 339.965 129.725,339.772 129.185,339.932 127.000 C 339.985 126.262,339.958 126.255,339.570 126.908 C 338.968 127.926,338.400 127.377,338.400 125.776 C 338.400 124.667,338.245 124.400,337.600 124.400 C 336.948 124.400,336.800 124.133,336.800 122.963 C 336.800 121.862,336.613 121.476,336.000 121.316 C 335.492 121.183,335.200 120.770,335.200 120.186 C 335.200 118.849,334.795 118.000,334.157 118.000 C 333.835 118.000,333.600 117.594,333.600 117.037 C 333.600 116.272,333.436 116.118,332.800 116.284 C 332.096 116.468,332.000 116.296,332.000 114.847 C 332.000 113.467,331.870 113.200,331.200 113.200 C 330.667 113.200,330.400 112.933,330.400 112.400 C 330.400 111.859,330.133 111.600,329.575 111.600 C 329.029 111.600,328.774 111.363,328.821 110.900 C 328.981 109.323,328.777 108.800,328.000 108.800 C 327.467 108.800,327.200 108.533,327.200 108.000 C 327.200 107.467,326.933 107.200,326.400 107.200 C 325.865 107.200,325.600 106.933,325.600 106.396 C 325.600 105.954,325.262 105.303,324.850 104.950 C 324.400 104.565,324.181 103.995,324.302 103.530 C 324.447 102.977,324.260 102.689,323.653 102.530 C 323.163 102.402,322.800 101.986,322.800 101.553 C 322.800 101.067,322.517 100.800,322.000 100.800 C 321.467 100.800,321.200 100.533,321.200 100.000 C 321.200 99.467,320.933 99.200,320.400 99.200 C 319.867 99.200,319.600 98.933,319.600 98.400 C 319.600 97.867,319.333 97.600,318.800 97.600 C 318.221 97.600,318.000 97.333,318.000 96.633 C 318.000 95.204,317.604 94.423,316.999 94.656 C 316.664 94.784,316.414 94.513,316.332 93.931 C 316.259 93.419,315.930 93.000,315.600 93.000 C 315.270 93.000,314.871 92.685,314.713 92.300 C 314.555 91.915,314.150 91.600,313.813 91.600 C 313.467 91.600,313.200 91.252,313.200 90.800 C 313.200 90.267,312.933 90.000,312.400 90.000 C 311.867 90.000,311.600 89.733,311.600 89.200 C 311.600 88.667,311.333 88.400,310.800 88.400 C 310.267 88.400,310.000 88.133,310.000 87.600 C 310.000 87.067,309.733 86.800,309.200 86.800 C 308.667 86.800,308.400 86.533,308.400 86.000 C 308.400 85.482,308.133 85.200,307.644 85.200 C 307.170 85.200,306.910 84.939,306.944 84.500 C 306.983 84.013,306.658 83.761,305.875 83.671 C 304.894 83.559,304.817 83.459,305.275 82.894 C 305.604 82.489,305.623 82.352,305.328 82.530 C 305.068 82.686,304.742 82.630,304.604 82.407 C 304.466 82.183,303.913 82.000,303.376 82.000 C 302.750 82.000,302.400 81.772,302.400 81.363 C 302.400 81.012,302.040 80.631,301.600 80.516 C 301.157 80.400,300.800 79.970,300.800 79.553 C 300.800 79.067,300.517 78.800,300.000 78.800 C 299.467 78.800,299.200 78.533,299.200 78.000 C 299.200 77.483,298.933 77.200,298.447 77.200 C 298.030 77.200,297.600 76.843,297.484 76.400 C 297.366 75.947,296.912 75.578,296.437 75.550 C 294.843 75.455,294.600 75.361,294.700 74.882 C 294.757 74.608,294.369 74.400,293.800 74.400 C 293.067 74.400,292.800 74.187,292.800 73.600 C 292.800 73.067,292.533 72.800,292.000 72.800 C 291.467 72.800,291.200 72.533,291.200 72.000 C 291.200 71.223,290.677 71.019,289.100 71.179 C 288.715 71.218,288.400 71.059,288.400 70.825 C 288.400 70.591,288.591 70.400,288.824 70.400 C 289.057 70.400,289.136 70.220,289.000 70.000 C 288.864 69.780,288.313 69.600,287.776 69.600 C 287.067 69.600,286.800 69.382,286.800 68.800 C 286.800 68.130,286.533 68.000,285.153 68.000 C 283.704 68.000,283.532 67.904,283.716 67.200 C 283.882 66.564,283.728 66.400,282.963 66.400 C 282.406 66.400,282.000 66.165,282.000 65.843 C 282.000 65.205,281.151 64.800,279.814 64.800 C 279.230 64.800,278.817 64.508,278.684 64.000 C 278.524 63.387,278.138 63.200,277.037 63.200 C 275.867 63.200,275.600 63.052,275.600 62.400 C 275.600 61.602,275.132 61.436,273.300 61.584 C 272.633 61.638,272.400 61.443,272.400 60.829 C 272.400 60.148,272.149 60.000,271.000 60.000 C 270.070 60.000,269.600 59.813,269.600 59.443 C 269.600 58.714,268.809 58.433,267.475 58.688 C 266.582 58.858,266.400 58.750,266.400 58.047 C 266.400 57.326,266.163 57.200,264.800 57.200 C 263.467 57.200,263.200 57.067,263.200 56.400 C 263.200 55.733,262.933 55.600,261.600 55.600 C 260.267 55.600,260.000 55.467,260.000 54.800 C 260.000 54.156,259.733 54.000,258.633 54.000 C 257.882 54.000,257.176 53.775,257.065 53.500 C 256.904 53.100,256.857 53.100,256.832 53.500 C 256.776 54.376,255.200 54.086,255.200 53.200 C 255.200 52.497,254.933 52.400,253.000 52.400 C 251.067 52.400,250.800 52.303,250.800 51.600 C 250.800 50.889,250.533 50.800,248.400 50.800 C 246.267 50.800,246.000 50.711,246.000 50.000 C 246.000 49.288,245.733 49.200,243.563 49.200 C 241.462 49.200,241.096 49.090,240.916 48.400 C 240.731 47.691,240.370 47.600,237.753 47.600 C 235.067 47.600,234.800 47.528,234.800 46.800 C 234.800 46.360,234.665 46.021,234.500 46.047 C 232.227 46.406,226.841 45.911,226.729 45.333 C 226.574 44.531,226.150 44.479,219.106 44.403 C 215.656 44.365,213.512 44.182,213.344 43.910 C 213.185 43.651,213.263 43.592,213.538 43.762 C 213.792 43.919,214.000 43.836,214.000 43.577 C 214.000 43.304,214.335 43.194,214.801 43.316 C 215.241 43.431,215.523 43.399,215.428 43.245 C 215.241 42.943,190.307 42.784,188.000 43.071 M203.640 142.069 C 206.254 142.970,208.434 144.909,210.308 148.000 L 211.400 149.800 211.600 168.533 C 211.793 186.594,211.828 187.286,212.589 187.842 C 213.248 188.324,216.263 188.415,230.989 188.397 C 249.091 188.376,250.072 188.451,252.714 190.053 C 260.585 194.825,260.253 205.490,252.085 210.292 L 250.200 211.400 231.519 211.600 C 216.948 211.756,212.725 211.914,212.319 212.319 C 211.914 212.725,211.756 216.948,211.600 231.519 L 211.400 250.200 210.285 252.097 C 205.219 260.715,194.947 260.666,189.692 252.000 L 188.600 250.200 188.400 231.519 C 188.244 216.947,188.086 212.725,187.680 212.319 C 187.275 211.914,183.088 211.756,168.680 211.600 C 150.438 211.403,150.176 211.388,148.345 210.486 C 139.331 206.045,139.279 193.976,148.255 189.557 L 150.200 188.600 168.639 188.400 C 183.624 188.237,187.204 188.095,187.751 187.641 C 188.365 187.131,188.421 185.514,188.383 169.391 C 188.336 148.951,188.303 149.195,191.600 145.362 C 194.420 142.084,199.587 140.671,203.640 142.069 " stroke="none" fill="#1b2336" fill-rule="evenodd"></path><path id="path1" d="M184.431 43.160 C 183.458 43.292,182.588 43.625,182.498 43.900 C 182.251 44.650,185.847 44.577,186.135 43.825 C 186.256 43.509,187.040 43.180,187.878 43.093 L 189.400 42.934 187.800 42.927 C 186.920 42.923,185.404 43.028,184.431 43.160 M212.500 43.078 C 213.325 43.170,214.000 43.426,214.000 43.647 C 214.000 43.867,213.792 43.919,213.538 43.762 C 213.250 43.584,213.185 43.652,213.366 43.945 C 213.534 44.217,214.480 44.384,215.624 44.343 C 217.642 44.272,217.864 43.207,215.858 43.223 C 215.386 43.227,214.100 43.158,213.000 43.070 C 211.900 42.981,211.675 42.985,212.500 43.078 M172.000 44.728 C 170.841 45.253,171.154 46.000,172.533 46.000 C 174.117 46.000,174.556 45.670,173.948 44.937 C 173.466 44.357,172.943 44.301,172.000 44.728 M226.684 45.200 C 226.819 45.718,227.230 46.000,227.847 46.000 C 229.063 46.000,229.103 44.975,227.900 44.652 C 226.549 44.290,226.457 44.332,226.684 45.200 M163.680 46.480 C 162.909 47.251,163.119 47.600,164.353 47.600 C 165.170 47.600,165.568 47.367,165.716 46.800 C 165.958 45.874,164.513 45.647,163.680 46.480 M234.800 46.800 C 234.800 47.387,235.067 47.600,235.800 47.600 C 236.970 47.600,237.018 47.475,236.171 46.629 C 235.317 45.774,234.800 45.839,234.800 46.800 M157.467 47.867 C 156.879 48.454,157.227 49.251,158.016 49.128 C 158.465 49.058,158.809 48.840,158.782 48.645 C 158.754 48.449,158.972 48.137,159.266 47.951 C 159.638 47.715,159.486 47.610,158.767 47.606 C 158.198 47.603,157.613 47.720,157.467 47.867 M240.875 48.300 C 241.041 49.172,242.800 49.511,242.800 48.671 C 242.800 48.115,242.000 47.600,241.138 47.600 C 240.920 47.600,240.801 47.915,240.875 48.300 M152.510 50.000 C 152.546 50.479,152.857 50.800,153.285 50.800 C 153.733 50.800,154.000 50.502,154.000 50.000 C 154.000 49.475,153.733 49.200,153.225 49.200 C 152.696 49.200,152.469 49.454,152.510 50.000 M246.000 50.086 C 246.000 50.533,246.299 50.800,246.800 50.800 C 247.301 50.800,247.600 50.533,247.600 50.086 C 247.600 49.638,247.301 49.371,246.800 49.371 C 246.299 49.371,246.000 49.638,246.000 50.086 M147.766 51.455 C 147.895 51.791,148.000 52.141,148.000 52.233 C 148.000 52.325,148.270 52.400,148.600 52.400 C 149.549 52.400,149.326 50.980,148.366 50.907 C 147.770 50.863,147.598 51.019,147.766 51.455 M250.800 51.571 C 250.800 52.143,251.057 52.400,251.629 52.400 C 252.202 52.400,252.417 52.185,252.325 51.705 C 252.124 50.662,250.800 50.546,250.800 51.571 M143.084 53.200 C 142.918 53.836,143.072 54.000,143.837 54.000 C 144.533 54.000,144.800 53.778,144.800 53.200 C 144.800 52.683,144.533 52.400,144.047 52.400 C 143.630 52.400,143.200 52.757,143.084 53.200 M255.200 53.200 C 255.200 53.733,255.467 54.000,256.000 54.000 C 256.533 54.000,256.800 53.733,256.800 53.200 C 256.800 52.667,256.533 52.400,256.000 52.400 C 255.467 52.400,255.200 52.667,255.200 53.200 M135.200 56.400 C 135.200 56.933,135.467 57.200,136.000 57.200 C 136.533 57.200,136.800 56.933,136.800 56.400 C 136.800 55.867,136.533 55.600,136.000 55.600 C 135.467 55.600,135.200 55.867,135.200 56.400 M263.200 56.371 C 263.200 56.921,263.458 57.200,263.965 57.200 C 264.916 57.200,264.826 55.859,263.862 55.671 C 263.417 55.584,263.200 55.813,263.200 56.371 M132.110 58.000 C 132.069 58.546,132.296 58.800,132.825 58.800 C 133.333 58.800,133.600 58.525,133.600 58.000 C 133.600 57.498,133.333 57.200,132.885 57.200 C 132.457 57.200,132.146 57.521,132.110 58.000 M266.400 58.000 C 266.400 58.533,266.667 58.800,267.200 58.800 C 267.733 58.800,268.000 58.533,268.000 58.000 C 268.000 57.467,267.733 57.200,267.200 57.200 C 266.667 57.200,266.400 57.467,266.400 58.000 M129.298 59.066 C 128.667 59.320,129.050 60.000,129.824 60.000 C 130.141 60.000,130.400 59.730,130.400 59.400 C 130.400 58.783,130.171 58.714,129.298 59.066 M269.600 59.371 C 269.600 59.742,269.942 60.000,270.433 60.000 C 271.408 60.000,271.270 59.065,270.267 58.871 C 269.872 58.794,269.600 58.998,269.600 59.371 M126.500 60.265 C 125.709 60.584,125.919 61.600,126.775 61.600 C 127.304 61.600,127.531 61.346,127.490 60.800 C 127.428 59.972,127.341 59.925,126.500 60.265 M272.400 60.800 C 272.400 61.333,272.667 61.600,273.200 61.600 C 274.149 61.600,274.274 60.591,273.367 60.243 C 272.450 59.891,272.400 59.919,272.400 60.800 M123.300 61.865 C 122.497 62.189,122.725 63.200,123.600 63.200 C 124.133 63.200,124.400 62.933,124.400 62.400 C 124.400 61.592,124.208 61.498,123.300 61.865 M275.600 62.400 C 275.600 62.933,275.867 63.200,276.400 63.200 C 277.349 63.200,277.474 62.191,276.567 61.843 C 275.650 61.491,275.600 61.519,275.600 62.400 M115.067 66.667 C 114.516 67.217,114.829 68.000,115.600 68.000 C 116.133 68.000,116.400 67.733,116.400 67.200 C 116.400 66.429,115.617 66.116,115.067 66.667 M283.875 66.658 C 283.309 67.225,283.629 68.000,284.429 68.000 C 284.989 68.000,285.217 67.783,285.129 67.333 C 284.987 66.597,284.304 66.230,283.875 66.658 M110.288 70.384 C 110.127 71.002,110.267 71.200,110.867 71.200 C 111.391 71.200,111.615 70.975,111.529 70.533 C 111.337 69.543,110.533 69.446,110.288 70.384 M289.000 70.000 C 289.136 70.220,289.057 70.400,288.824 70.400 C 288.591 70.400,288.400 70.580,288.400 70.800 C 288.400 71.020,288.670 71.200,289.000 71.200 C 289.333 71.200,289.600 70.844,289.600 70.400 C 289.600 69.960,289.409 69.600,289.176 69.600 C 288.943 69.600,288.864 69.780,289.000 70.000 M105.867 73.067 C 105.316 73.617,105.629 74.400,106.400 74.400 C 106.933 74.400,107.200 74.133,107.200 73.600 C 107.200 72.829,106.417 72.516,105.867 73.067 M294.600 74.800 C 294.464 75.020,294.408 75.214,294.476 75.231 C 295.594 75.507,296.000 75.437,296.000 74.965 C 296.000 74.319,294.972 74.198,294.600 74.800 M98.080 79.280 C 97.375 79.985,97.493 80.400,98.400 80.400 C 98.933 80.400,99.200 80.133,99.200 79.600 C 99.200 78.693,98.785 78.575,98.080 79.280 M96.369 80.500 C 96.078 81.451,96.214 81.846,96.847 81.894 C 97.685 81.957,97.701 81.929,97.357 81.033 C 97.156 80.508,96.479 80.143,96.369 80.500 M302.284 81.200 C 302.400 81.643,302.830 82.000,303.247 82.000 C 304.110 82.000,304.214 81.574,303.520 80.880 C 302.761 80.121,302.050 80.305,302.284 81.200 M304.748 82.537 C 304.993 82.832,305.075 83.192,304.930 83.337 C 304.785 83.482,304.877 83.600,305.133 83.600 C 305.668 83.600,305.691 83.503,305.357 82.633 C 305.224 82.285,304.932 82.000,304.708 82.000 C 304.453 82.000,304.467 82.199,304.748 82.537 M80.498 96.867 C 80.393 97.270,80.058 97.600,79.753 97.600 C 79.449 97.600,79.200 97.675,79.200 97.767 C 79.200 97.859,79.091 98.219,78.957 98.567 C 78.783 99.021,78.953 99.200,79.557 99.200 C 80.062 99.200,80.400 98.944,80.400 98.563 C 80.400 98.212,80.760 97.831,81.200 97.716 C 82.158 97.465,82.280 96.133,81.345 96.133 C 80.985 96.133,80.604 96.463,80.498 96.867 M318.000 96.786 C 318.000 97.333,318.262 97.600,318.800 97.600 C 319.240 97.600,319.600 97.426,319.600 97.214 C 319.600 97.002,319.240 96.635,318.800 96.400 C 318.122 96.037,318.000 96.096,318.000 96.786 M74.666 104.733 C 74.740 105.026,74.800 105.351,74.800 105.456 C 74.800 105.561,74.980 105.536,75.200 105.400 C 75.420 105.264,75.600 104.973,75.600 104.753 C 75.600 104.533,75.435 104.455,75.234 104.579 C 75.033 104.703,74.792 104.669,74.700 104.502 C 74.607 104.336,74.592 104.440,74.666 104.733 M324.000 104.196 C 324.000 104.211,324.360 104.530,324.800 104.907 C 325.560 105.558,325.600 105.554,325.600 104.821 C 325.600 104.296,325.344 104.069,324.800 104.110 C 324.360 104.143,324.000 104.182,324.000 104.196 M73.067 105.867 C 72.516 106.417,72.829 107.200,73.600 107.200 C 74.133 107.200,74.400 106.933,74.400 106.400 C 74.400 105.629,73.617 105.316,73.067 105.867 M70.015 110.582 C 69.422 111.297,69.810 112.048,70.613 111.740 C 71.238 111.500,71.441 110.000,70.849 110.000 C 70.656 110.000,70.280 110.262,70.015 110.582 M328.800 111.000 C 328.800 111.333,329.156 111.600,329.600 111.600 C 330.044 111.600,330.400 111.333,330.400 111.000 C 330.400 110.667,330.044 110.400,329.600 110.400 C 329.156 110.400,328.800 110.667,328.800 111.000 M66.667 115.067 C 66.116 115.617,66.429 116.400,67.200 116.400 C 67.733 116.400,68.000 116.133,68.000 115.600 C 68.000 114.829,67.217 114.516,66.667 115.067 M332.000 115.600 C 332.000 116.202,332.209 116.418,332.700 116.324 C 333.085 116.250,333.400 115.924,333.400 115.600 C 333.400 115.276,333.085 114.950,332.700 114.876 C 332.209 114.782,332.000 114.998,332.000 115.600 M61.843 123.433 C 61.491 124.350,61.519 124.400,62.400 124.400 C 62.933 124.400,63.200 124.133,63.200 123.600 C 63.200 122.651,62.191 122.526,61.843 123.433 M336.800 123.600 C 336.800 124.120,337.067 124.400,337.563 124.400 C 338.128 124.400,338.271 124.193,338.116 123.600 C 338.001 123.160,337.658 122.800,337.353 122.800 C 337.049 122.800,336.800 123.160,336.800 123.600 M60.480 126.480 C 59.763 127.197,59.899 127.552,60.800 127.316 C 61.240 127.201,61.600 126.858,61.600 126.553 C 61.600 125.873,61.119 125.841,60.480 126.480 M338.471 126.621 C 338.542 126.963,338.760 127.217,338.955 127.187 C 339.151 127.157,339.483 127.372,339.693 127.666 C 339.974 128.059,340.013 128.007,339.838 127.467 C 339.707 127.064,339.600 126.569,339.600 126.367 C 339.600 126.165,339.317 126.000,338.971 126.000 C 338.613 126.000,338.397 126.268,338.471 126.621 M59.056 129.078 C 58.578 129.556,58.798 130.400,59.400 130.400 C 59.730 130.400,60.000 130.141,60.000 129.824 C 60.000 129.155,59.429 128.704,59.056 129.078 M340.000 129.190 C 340.000 129.449,340.216 129.517,340.500 129.347 C 340.840 129.143,340.824 129.263,340.451 129.723 C 339.976 130.309,339.994 130.400,340.580 130.400 C 340.999 130.400,341.209 130.144,341.129 129.733 C 340.981 128.970,340.000 128.498,340.000 129.190 M57.200 132.835 C 57.200 133.342,57.479 133.600,58.029 133.600 C 58.587 133.600,58.816 133.383,58.729 132.938 C 58.541 131.974,57.200 131.884,57.200 132.835 M341.467 132.267 C 340.916 132.817,341.229 133.600,342.000 133.600 C 342.533 133.600,342.800 133.333,342.800 132.800 C 342.800 132.029,342.017 131.716,341.467 132.267 M55.867 135.467 C 55.316 136.017,55.629 136.800,56.400 136.800 C 56.933 136.800,57.200 136.533,57.200 136.000 C 57.200 135.229,56.417 134.916,55.867 135.467 M342.800 135.971 C 342.800 136.543,343.057 136.800,343.629 136.800 C 344.202 136.800,344.417 136.585,344.325 136.105 C 344.124 135.062,342.800 134.946,342.800 135.971 M196.200 142.130 C 192.814 143.456,189.674 146.843,188.767 150.150 C 188.494 151.148,188.357 158.008,188.383 169.391 C 188.421 185.514,188.365 187.131,187.751 187.641 C 187.204 188.095,183.624 188.237,168.639 188.400 L 150.200 188.600 148.255 189.557 C 139.279 193.976,139.331 206.045,148.345 210.486 C 150.176 211.388,150.438 211.403,168.680 211.600 C 183.088 211.756,187.275 211.914,187.680 212.319 C 188.086 212.725,188.244 216.947,188.400 231.519 L 188.600 250.200 189.692 252.000 C 194.947 260.666,205.219 260.715,210.285 252.097 L 211.400 250.200 211.600 231.519 C 211.756 216.948,211.914 212.725,212.319 212.319 C 212.725 211.914,216.948 211.756,231.519 211.600 L 250.200 211.400 252.085 210.292 C 260.253 205.490,260.585 194.825,252.714 190.053 C 250.072 188.451,249.091 188.376,230.989 188.397 C 216.263 188.415,213.248 188.324,212.589 187.842 C 211.828 187.286,211.793 186.594,211.600 168.533 L 211.400 149.800 210.308 148.000 C 207.001 142.546,201.251 140.154,196.200 142.130 M52.557 143.833 C 52.691 144.181,52.800 144.541,52.800 144.633 C 52.800 144.725,53.070 144.800,53.400 144.800 C 53.733 144.800,54.000 144.444,54.000 144.000 C 54.000 143.453,53.733 143.200,53.157 143.200 C 52.553 143.200,52.383 143.379,52.557 143.833 M346.071 143.862 C 346.258 144.824,347.559 144.914,347.487 143.961 C 347.453 143.506,347.130 143.200,346.686 143.200 C 346.208 143.200,345.988 143.437,346.071 143.862 M51.067 147.867 C 50.516 148.417,50.829 149.200,51.600 149.200 C 52.133 149.200,52.400 148.933,52.400 148.400 C 52.400 147.629,51.617 147.316,51.067 147.867 M347.600 148.371 C 347.600 148.943,347.857 149.200,348.429 149.200 C 349.002 149.200,349.217 148.985,349.125 148.505 C 348.924 147.462,347.600 147.346,347.600 148.371 M49.371 153.200 C 49.371 153.701,49.638 154.000,50.086 154.000 C 50.533 154.000,50.800 153.701,50.800 153.200 C 50.800 152.699,50.533 152.400,50.086 152.400 C 49.638 152.400,49.371 152.699,49.371 153.200 M349.200 153.175 C 349.200 153.704,349.454 153.931,350.000 153.890 C 350.953 153.818,351.064 152.987,350.167 152.643 C 349.252 152.292,349.200 152.320,349.200 153.175 M47.867 157.467 C 47.720 157.613,47.600 158.077,47.600 158.496 C 47.600 159.586,48.966 159.228,49.128 158.096 C 49.251 157.233,48.483 156.850,47.867 157.467 M350.800 158.124 C 350.800 158.780,351.074 159.178,351.624 159.322 C 352.321 159.505,352.428 159.375,352.324 158.472 C 352.158 157.043,350.800 156.732,350.800 158.124 M46.480 163.680 C 45.707 164.453,45.898 165.600,46.800 165.600 C 47.422 165.600,47.600 165.333,47.600 164.400 C 47.600 163.122,47.258 162.902,46.480 163.680 M352.400 164.400 C 352.400 165.333,352.578 165.600,353.200 165.600 C 354.102 165.600,354.293 164.453,353.520 163.680 C 352.742 162.902,352.400 163.122,352.400 164.400 M44.643 171.833 C 44.135 173.157,44.364 173.934,45.200 173.716 C 45.767 173.568,46.000 173.170,46.000 172.353 C 46.000 171.101,45.062 170.741,44.643 171.833 M354.000 172.528 C 354.000 173.794,354.900 174.840,355.337 174.083 C 355.784 173.308,355.351 171.401,354.700 171.276 C 354.142 171.169,354.000 171.423,354.000 172.528 M43.697 181.300 C 43.476 181.575,43.202 183.240,43.086 185.000 C 42.971 186.760,42.961 187.715,43.063 187.122 C 43.190 186.388,43.433 186.114,43.824 186.265 C 44.292 186.444,44.400 185.952,44.400 183.643 C 44.400 180.663,44.348 180.489,43.697 181.300 M355.515 182.285 C 355.233 184.481,355.593 186.800,356.216 186.800 C 356.507 186.800,356.822 187.205,356.918 187.700 C 357.013 188.195,357.102 187.700,357.116 186.600 C 357.171 182.126,355.956 178.850,355.515 182.285 M356.784 212.000 C 356.741 212.770,356.734 213.557,356.769 213.749 C 356.804 213.941,356.577 214.000,356.264 213.880 C 355.863 213.726,355.631 214.054,355.480 214.987 C 355.155 216.985,355.592 219.578,356.213 219.340 C 356.754 219.132,357.487 212.164,357.077 211.135 C 356.959 210.841,356.828 211.230,356.784 212.000 M43.116 214.600 C 43.315 217.578,43.428 218.000,44.024 218.000 C 44.231 218.000,44.400 217.100,44.400 216.000 C 44.400 214.528,44.248 214.000,43.825 214.000 C 43.504 214.000,43.180 213.515,43.090 212.900 C 43.002 212.295,43.013 213.060,43.116 214.600 M44.595 226.200 C 44.657 226.860,44.729 227.715,44.754 228.100 C 44.846 229.510,46.000 228.861,46.000 227.400 C 46.000 226.459,45.814 226.000,45.433 226.000 C 45.122 226.000,44.780 225.775,44.674 225.500 C 44.567 225.225,44.532 225.540,44.595 226.200 M354.000 227.171 C 354.000 228.810,354.194 229.046,355.083 228.481 C 355.817 228.014,355.513 225.833,354.692 225.675 C 354.127 225.566,354.000 225.842,354.000 227.171 M353.100 234.276 C 352.634 234.397,352.400 234.851,352.400 235.629 C 352.400 237.545,353.604 236.962,353.827 234.938 C 353.883 234.422,353.900 234.021,353.865 234.046 C 353.829 234.072,353.485 234.175,353.100 234.276 M46.600 235.200 C 46.308 235.672,46.687 236.400,47.224 236.400 C 47.431 236.400,47.600 236.040,47.600 235.600 C 47.600 234.756,47.018 234.524,46.600 235.200 M47.600 241.205 C 47.600 241.991,48.129 242.800,48.643 242.800 C 49.509 242.800,49.300 241.319,48.400 241.084 C 47.960 240.969,47.600 241.023,47.600 241.205 M350.800 241.829 C 350.800 243.142,352.138 243.025,352.328 241.696 C 352.425 241.015,352.257 240.800,351.628 240.800 C 351.005 240.800,350.800 241.055,350.800 241.829 M49.316 246.883 C 49.391 247.876,50.800 247.821,50.800 246.825 C 50.800 246.307,50.545 246.069,50.031 246.108 C 49.557 246.143,49.283 246.440,49.316 246.883 M349.200 246.829 C 349.200 247.402,349.415 247.617,349.895 247.525 C 350.938 247.324,351.054 246.000,350.029 246.000 C 349.457 246.000,349.200 246.257,349.200 246.829 M50.875 251.495 C 51.076 252.538,52.400 252.654,52.400 251.629 C 52.400 251.057,52.143 250.800,51.571 250.800 C 50.998 250.800,50.783 251.015,50.875 251.495 M347.600 251.376 C 347.600 252.211,348.430 252.597,348.839 251.951 C 349.381 251.095,349.268 250.800,348.400 250.800 C 347.960 250.800,347.600 251.059,347.600 251.376 M52.643 255.833 C 52.291 256.750,52.319 256.800,53.200 256.800 C 53.733 256.800,54.000 256.533,54.000 256.000 C 54.000 255.051,52.991 254.926,52.643 255.833 M346.000 256.000 C 346.000 256.533,346.267 256.800,346.800 256.800 C 347.333 256.800,347.600 256.533,347.600 256.000 C 347.600 255.467,347.333 255.200,346.800 255.200 C 346.267 255.200,346.000 255.467,346.000 256.000 M55.600 264.000 C 55.600 264.533,55.867 264.800,56.400 264.800 C 56.933 264.800,57.200 264.533,57.200 264.000 C 57.200 263.467,56.933 263.200,56.400 263.200 C 55.867 263.200,55.600 263.467,55.600 264.000 M342.800 264.029 C 342.800 265.054,344.124 264.938,344.325 263.895 C 344.417 263.415,344.202 263.200,343.629 263.200 C 343.057 263.200,342.800 263.457,342.800 264.029 M57.200 267.115 C 57.200 267.543,57.521 267.854,58.000 267.890 C 58.546 267.931,58.800 267.704,58.800 267.175 C 58.800 266.667,58.525 266.400,58.000 266.400 C 57.498 266.400,57.200 266.667,57.200 267.115 M341.275 267.095 C 341.476 268.138,342.800 268.254,342.800 267.229 C 342.800 266.657,342.543 266.400,341.971 266.400 C 341.398 266.400,341.183 266.615,341.275 267.095 M58.800 270.176 C 58.800 270.998,59.628 271.402,60.018 270.770 C 60.199 270.478,60.258 270.095,60.150 269.919 C 59.814 269.375,58.800 269.568,58.800 270.176 M340.000 270.433 C 340.000 271.408,340.935 271.270,341.129 270.267 C 341.206 269.872,341.002 269.600,340.629 269.600 C 340.258 269.600,340.000 269.942,340.000 270.433 M339.100 272.303 C 338.264 272.489,338.151 274.000,338.973 274.000 C 339.288 274.000,339.665 273.626,339.810 273.170 C 340.119 272.196,340.036 272.095,339.100 272.303 M60.295 273.243 C 60.404 273.659,60.756 274.000,61.076 274.000 C 61.869 274.000,61.569 272.700,60.749 272.580 C 60.288 272.513,60.155 272.707,60.295 273.243 M62.000 276.433 C 62.000 277.408,62.935 277.270,63.129 276.267 C 63.206 275.872,63.002 275.600,62.629 275.600 C 62.258 275.600,62.000 275.942,62.000 276.433 M336.800 276.400 C 336.800 276.840,337.049 277.200,337.353 277.200 C 337.658 277.200,338.001 276.840,338.116 276.400 C 338.271 275.807,338.128 275.600,337.563 275.600 C 337.067 275.600,336.800 275.880,336.800 276.400 M66.400 284.200 C 66.400 284.530,66.475 284.800,66.567 284.800 C 66.659 284.800,67.019 284.909,67.367 285.043 C 67.821 285.217,68.000 285.047,68.000 284.443 C 68.000 283.867,67.747 283.600,67.200 283.600 C 66.756 283.600,66.400 283.867,66.400 284.200 M332.076 284.300 C 332.150 284.685,332.476 285.000,332.800 285.000 C 333.124 285.000,333.450 284.685,333.524 284.300 C 333.618 283.809,333.402 283.600,332.800 283.600 C 332.198 283.600,331.982 283.809,332.076 284.300 M69.600 288.837 C 69.600 289.333,69.880 289.600,70.400 289.600 C 70.840 289.600,71.200 289.351,71.200 289.047 C 71.200 288.742,70.840 288.399,70.400 288.284 C 69.807 288.129,69.600 288.272,69.600 288.837 M328.800 288.915 C 328.800 289.198,329.160 289.457,329.600 289.490 C 330.057 289.524,330.400 289.304,330.400 288.975 C 330.400 288.659,330.040 288.400,329.600 288.400 C 329.160 288.400,328.800 288.632,328.800 288.915 M73.292 293.275 C 73.539 294.017,74.400 294.140,74.400 293.433 C 74.400 293.085,74.115 292.800,73.767 292.800 C 73.418 292.800,73.205 293.014,73.292 293.275 M324.400 295.267 C 324.400 295.670,324.670 296.000,325.000 296.000 C 325.330 296.000,325.600 295.809,325.600 295.576 C 325.600 295.343,325.375 295.288,325.100 295.453 C 324.702 295.692,324.701 295.629,325.094 295.143 C 325.494 294.649,325.475 294.533,324.994 294.533 C 324.667 294.533,324.400 294.863,324.400 295.267 M80.400 302.797 C 80.400 303.015,80.760 303.418,81.200 303.693 C 81.640 303.968,82.000 304.449,82.000 304.763 C 82.000 305.077,82.091 305.242,82.203 305.131 C 82.720 304.613,81.866 302.400,81.150 302.400 C 80.738 302.400,80.400 302.578,80.400 302.797 M318.000 303.214 C 318.000 303.904,318.122 303.963,318.800 303.600 C 319.240 303.365,319.600 302.998,319.600 302.786 C 319.600 302.574,319.240 302.400,318.800 302.400 C 318.262 302.400,318.000 302.667,318.000 303.214 M95.200 317.859 C 95.530 318.006,96.035 318.458,96.323 318.863 C 97.036 319.869,97.984 319.826,97.716 318.800 C 97.601 318.360,97.303 317.998,97.053 317.995 C 96.804 317.992,96.150 317.900,95.600 317.790 C 95.050 317.681,94.870 317.712,95.200 317.859 M303.300 317.882 C 302.737 317.991,302.400 318.345,302.400 318.828 C 302.400 319.892,302.980 319.795,303.763 318.600 C 304.124 318.050,304.369 317.625,304.309 317.654 C 304.249 317.684,303.795 317.787,303.300 317.882 M294.626 324.758 C 294.385 325.149,295.583 325.750,295.924 325.409 C 296.039 325.294,295.878 325.197,295.567 325.194 C 295.100 325.189,295.106 325.119,295.600 324.800 C 296.117 324.466,296.107 324.411,295.524 324.406 C 295.152 324.403,294.748 324.561,294.626 324.758 M110.600 329.200 C 110.308 329.672,110.687 330.400,111.224 330.400 C 111.431 330.400,111.600 330.040,111.600 329.600 C 111.600 328.756,111.018 328.524,110.600 329.200 M288.557 329.433 C 288.691 329.781,288.800 330.141,288.800 330.233 C 288.800 330.325,288.980 330.400,289.200 330.400 C 289.420 330.400,289.600 330.040,289.600 329.600 C 289.600 329.132,289.333 328.800,288.957 328.800 C 288.535 328.800,288.398 329.018,288.557 329.433 M115.275 332.425 C 115.371 332.714,115.686 333.029,115.975 333.125 C 116.275 333.225,116.425 333.075,116.325 332.775 C 116.229 332.486,115.914 332.171,115.625 332.075 C 115.325 331.975,115.175 332.125,115.275 332.425 M283.600 332.600 C 283.600 332.930,283.870 333.200,284.200 333.200 C 284.530 333.200,284.800 332.930,284.800 332.600 C 284.800 332.270,284.530 332.000,284.200 332.000 C 283.870 332.000,283.600 332.270,283.600 332.600 M126.133 339.000 C 126.133 339.330,126.373 339.600,126.667 339.600 C 126.960 339.600,127.200 339.330,127.200 339.000 C 127.200 338.670,126.960 338.400,126.667 338.400 C 126.373 338.400,126.133 338.670,126.133 339.000 M272.800 338.933 C 272.800 339.227,273.040 339.467,273.333 339.467 C 273.627 339.467,273.867 339.227,273.867 338.933 C 273.867 338.640,273.627 338.400,273.333 338.400 C 273.040 338.400,272.800 338.640,272.800 338.933 M129.087 340.682 C 129.357 341.386,130.400 341.341,130.400 340.625 C 130.400 340.307,130.061 340.075,129.644 340.107 C 129.202 340.140,128.971 340.379,129.087 340.682 M269.600 340.600 C 269.600 340.930,269.851 341.200,270.157 341.200 C 270.464 341.200,270.818 340.930,270.945 340.600 C 271.101 340.192,270.923 340.000,270.387 340.000 C 269.954 340.000,269.600 340.270,269.600 340.600 M132.449 341.561 C 131.803 341.970,132.189 342.800,133.024 342.800 C 133.341 342.800,133.600 342.440,133.600 342.000 C 133.600 341.132,133.305 341.019,132.449 341.561 M266.400 342.000 C 266.400 342.498,266.665 342.798,267.100 342.794 C 267.698 342.789,267.713 342.731,267.200 342.400 C 266.687 342.069,266.702 342.011,267.300 342.006 C 267.685 342.003,268.000 341.820,268.000 341.600 C 268.000 341.380,267.640 341.200,267.200 341.200 C 266.667 341.200,266.400 341.467,266.400 342.000 M143.200 346.320 C 143.200 346.716,144.059 347.600,144.443 347.600 C 144.598 347.600,144.631 347.240,144.516 346.800 C 144.318 346.044,143.200 345.636,143.200 346.320 M147.600 347.920 C 147.600 348.334,148.466 349.200,148.880 349.200 C 149.056 349.200,149.200 348.840,149.200 348.400 C 149.200 347.867,148.933 347.600,148.400 347.600 C 147.960 347.600,147.600 347.744,147.600 347.920 M250.906 348.447 C 250.845 349.263,250.864 349.267,251.422 348.547 C 251.982 347.826,251.993 347.828,251.742 348.600 C 251.538 349.229,251.590 349.301,251.986 348.935 C 252.546 348.418,252.224 347.600,251.462 347.600 C 251.191 347.600,250.942 347.981,250.906 348.447 M152.475 349.895 C 152.676 350.938,154.000 351.054,154.000 350.029 C 154.000 349.457,153.743 349.200,153.171 349.200 C 152.598 349.200,152.383 349.415,152.475 349.895 M246.110 350.000 C 246.045 350.862,246.969 351.097,247.438 350.338 C 247.632 350.025,247.543 349.985,247.162 350.215 C 246.683 350.503,246.681 350.453,247.149 349.877 C 247.628 349.286,247.601 349.200,246.934 349.200 C 246.457 349.200,246.148 349.500,246.110 350.000 M173.600 354.400 C 174.099 354.723,174.065 354.794,173.400 354.822 L 172.600 354.856 173.400 355.200 C 174.822 355.811,175.243 355.659,174.507 354.800 C 174.130 354.360,173.637 354.003,173.411 354.006 C 173.185 354.009,173.270 354.187,173.600 354.400 M225.762 354.462 C 225.585 354.748,225.652 354.815,225.938 354.638 C 226.192 354.481,226.400 354.543,226.400 354.776 C 226.400 355.009,226.550 355.200,226.733 355.200 C 226.917 355.200,227.067 354.930,227.067 354.600 C 227.067 353.893,226.172 353.798,225.762 354.462 M182.729 356.115 C 182.990 356.429,184.034 356.654,185.285 356.664 C 186.448 356.674,187.059 356.600,186.642 356.500 C 186.171 356.388,186.052 356.215,186.328 356.045 C 186.572 355.894,185.762 355.728,184.530 355.677 C 182.704 355.600,182.370 355.682,182.729 356.115 M213.078 356.142 C 212.925 356.539,213.251 356.672,214.301 356.642 C 215.089 356.619,215.808 356.375,215.900 356.100 C 216.136 355.393,213.349 355.434,213.078 356.142 M189.891 357.089 C 190.601 357.177,191.861 357.179,192.691 357.092 C 193.521 357.005,192.940 356.933,191.400 356.931 C 189.860 356.929,189.181 357.000,189.891 357.089 M205.900 357.082 C 206.395 357.178,207.205 357.178,207.700 357.082 C 208.195 356.987,207.790 356.909,206.800 356.909 C 205.810 356.909,205.405 356.987,205.900 357.082 " stroke="none" fill="#40efb3" fill-rule="evenodd"></path></g></svg>